<?xml version="1.0" encoding="utf-8"?>
<!-- Generator: Adobe Illustrator 27.1.1, SVG Export Plug-In . SVG Version: 6.00 Build 0)  -->
<svg version="1.1" id="Layer_2" xmlns="http://www.w3.org/2000/svg" xmlns:xlink="http://www.w3.org/1999/xlink" x="0px" y="0px"
	 viewBox="0 0 1024 1024" style="enable-background:new 0 0 1024 1024;" xml:space="preserve">
<style type="text/css">
	.st0{fill:#D1C4A7;}
</style>
<g>
	<g>
		<g>
			<polygon class="st0" points="517.21,321.21 527.75,486.91 621.57,417.72 550.36,507.15 714.37,519.64 552.05,533.14 
				623.25,621.22 528.42,554.06 515.3,746.27 499.4,555.07 408.92,621.22 477.47,534.49 317.84,523.69 479.83,507.49 408.28,417.05 
				501.43,483.19 			"/>
			<path class="st0" d="M685.59,241.7c-0.79-0.3-1.58-0.62-2.36-0.9c-0.04-0.02-0.06-0.04-0.08-0.04c-0.77-0.43-1.52-0.86-2.29-1.26
				h-0.02c-0.6-0.36-1.24-0.69-1.86-1.01c0,0,0,0-0.02-0.02c-2.94-1.56-5.91-3.09-8.89-4.56c-0.02-0.02-0.04-0.02-0.06-0.02
				c-5.79-2.89-11.7-5.57-17.68-8.04c-0.19-0.08-0.37-0.13-0.54-0.19c-6.6-2.74-13.29-5.21-20.12-7.39
				c7.71,2.4,15.24,5.16,22.69,8.27c0.04,0.02,0.09,0.04,0.13,0.06c5.98,2.47,11.85,5.17,17.66,8.04l0.02,0.02
				c2.68,1.31,5.34,2.68,7.99,4.09h0.02c0.71,0.37,1.41,0.75,2.1,1.12l0.02,0.02C683.42,240.48,684.5,241.08,685.59,241.7z"/>
			<path class="st0" d="M280.97,302.07c81.31-69.59,197.64-90.53,300.58-66.67c92.72,24.73,182.05,90.55,218.39,181.24
				c17.84,45.52,24.42,95.35,19.83,143.99c-0.8,8.1-1.88,16.19-3.6,24.15c1.68-7.97,2.72-16.06,3.48-24.16
				c4.35-48.59-2.45-98.31-20.48-143.68c-33.86-83.3-111.34-143.63-194.82-172.51c-76.85-24.88-163.65-20.31-238.25,10.17
				c-29.73,12.44-58.46,28.66-82.53,50.17C283.57,304.77,280.97,302.07,280.97,302.07L280.97,302.07z"/>
			<path class="st0" d="M764.05,310.05c-10.18-10.54-21.07-20.38-32.53-29.49c-5.81-4.26-14.27-10.97-20.3-14.79l-7.61-5.12
				c-1.11-0.75-2.23-1.5-3.36-2.23l-0.08-0.04c-17.98-11.83-37.18-21.92-57.28-30c-0.06-0.02-0.11-0.04-0.15-0.06
				c-6.67-2.68-13.46-5.14-20.34-7.35c-10.01-3.26-20.21-6.02-30.58-8.25c-14.45-3.24-29.1-5.49-43.83-6.75h-0.22
				c-0.54-0.06-1.07-0.09-1.61-0.13c-1.78-0.15-3.56-0.28-5.34-0.39c-61.21-3.96-123.5,8.72-178.03,36.78
				c-0.02,0-0.06,0.02-0.08,0.04c-14.17,7.27-27.8,15.58-40.76,24.92c-5.31,3.77-10.54,7.71-15.6,11.83
				c-0.13,0.11-0.26,0.22-0.41,0.34c-9.39,7.61-18.35,15.77-26.74,24.45c-0.04,0.04-0.09,0.08-0.13,0.13
				c-6.39,6.56-12.47,13.42-18.19,20.55c-2.21,2.76-4.37,5.53-6.49,8.36c2.1-2.85,4.26-5.64,6.47-8.4
				c4.65-5.81,9.51-11.49,14.61-16.93c0.06-0.08,0.11-0.13,0.17-0.19c11.79-12.66,24.71-24.28,38.47-34.76
				c0.07-0.07,0.17-0.15,0.26-0.21c2.42-1.84,4.89-3.66,7.39-5.44c14.59-10.59,30.05-19.89,46.18-27.88
				c0.02-0.02,0.06-0.04,0.09-0.04c53.19-26.36,113.41-38.28,172.71-34.68c1.84,0.09,3.67,0.22,5.51,0.37
				c5.17,0.39,10.35,0.92,15.5,1.57c0.06,0,0.13,0.02,0.21,0.02c0.73,0.07,1.42,0.17,2.16,0.26c9.39,1.24,18.73,2.87,27.99,4.89
				c6.52,1.37,13.01,2.96,19.4,4.76c10.95,3.06,21.69,6.71,32.21,10.91h0.02c6.3,2.53,12.52,5.25,18.65,8.17
				c0.08,0.04,0.15,0.07,0.24,0.11c17.89,8.51,34.98,18.65,51.05,30.22C731.9,278.72,748.81,293.63,764.05,310.05z"/>
			<path class="st0" d="M851.81,519.3c-0.09-9.62-0.71-19.24-1.8-28.8c0.49,3.15,0.92,6.3,1.29,9.45
				C851.7,506.38,851.87,512.85,851.81,519.3z"/>
			<path class="st0" d="M854.01,518.46c-0.09-9.62-0.71-19.24-1.8-28.8c-6-52.78-26.68-103.96-57.69-146.89
				c-8.57-11.76-17.96-22.89-28.08-33.35c-0.06-0.07-0.11-0.13-0.19-0.21c-10.18-10.54-21.07-20.38-32.53-29.49
				c-5.81-4.26-14.27-10.97-20.3-14.79l-7.61-5.12l-2.81-1.89l-0.54-0.34l-0.08-0.04l-10.16-6.07
				c-15.04-9.04-30.93-16.87-47.11-23.92c-0.06-0.02-0.11-0.04-0.15-0.06c-3.94-1.71-7.89-3.37-11.87-5.01
				c-2.94-1.2-5.89-2.38-8.85-3.54c3.47,1.29,6.96,2.62,10.42,3.99c19.97,7.8,39.77,16.65,58.16,27.5
				c7.86,4.48,15.56,9.26,23.08,14.36c29.04,19.7,55.16,43.95,76.34,71.82c35.17,46.7,57.63,103.96,61.27,162.49
				C853.89,505.54,854.06,512.01,854.01,518.46z"/>
			<path class="st0" d="M190.69,587.45c2.77,8.51,5.83,16.87,9.15,25.07l-3.56,0.9C194.03,604.59,192.17,595.95,190.69,587.45z"/>
			<path class="st0" d="M263.1,717.72c6.06,7.97,12.67,15.88,19.85,23.66l-1.37,1.27c-14.66-15.9-26.94-32.27-37.18-48.8
				c5.91,8.23,12.13,16.16,18.65,23.83C263.06,717.68,263.08,717.7,263.1,717.72z"/>
			<path class="st0" d="M387.29,814.16c-9.67-3.75-20.45-8.21-29.88-12.73c-0.6-0.28-1.2-0.56-1.8-0.86
				c-9.41-5.42-18.58-11.27-27.49-17.51c9.75,6.13,19.72,11.83,29.92,17.12c1.22,0.58,10.86,5.53,12.04,6.11
				c1.91,0.88,5.53,2.49,7.39,3.36L387.29,814.16z"/>
			<path class="st0" d="M384.49,815.69c5.04,1.29,10.61,2.61,15.02,3.82c-3.99-0.75-8.08-1.59-12.21-2.49c0,0-0.02-0.02-0.04-0.02
				C386.33,816.59,385.41,816.14,384.49,815.69z"/>
			<path class="st0" d="M415.5,825.82c-4.2-0.64-8.42-1.31-12.64-2.02c-0.02,0-0.04-0.02-0.04-0.02c-0.71-0.3-1.46-0.58-2.17-0.9
				C405.87,823.89,411.04,824.88,415.5,825.82z"/>
			<path class="st0" d="M409.07,826.29c3.99,0.56,7.99,1.09,12,1.56c-3.28-0.21-6.56-0.45-9.84-0.73c0,0,0,0-0.02-0.02
				C410.5,826.83,409.8,826.55,409.07,826.29z"/>
			<path class="st0" d="M423.68,831.61c3.28,0.09,6.54,0.21,9.75,0.36c-2.66,0.07-5.42,0.13-8.21,0.19c0,0-0.02,0-0.04,0
				C424.69,831.99,424.16,831.8,423.68,831.61z"/>
			<path class="st0" d="M774.78,209.51c-16.89-6.79-33.92-13.26-51.16-19.01c-1.87-0.64-3.75-1.26-5.64-1.86
				c0.3,0,0.58,0.02,0.88,0.02c1.87,0.6,3.73,1.24,5.57,1.86h0.04C741.44,196.29,758.17,202.74,774.78,209.51z"/>
			<path class="st0" d="M387.29,814.16c-9.67-3.75-20.45-8.21-29.88-12.73c-0.6-0.28-1.2-0.56-1.8-0.86
				c-93.85-44.68-168.72-132.44-190.97-234.69c17.55,66.01,55.68,126.06,105.33,172.63c17.85,16.63,37.38,31.5,58.08,44.49
				c0.02,0.04,0.06,0.04,0.07,0.06c9.75,6.13,19.72,11.83,29.92,17.12c1.22,0.58,10.86,5.53,12.04,6.11
				c1.91,0.88,5.53,2.49,7.39,3.36L387.29,814.16z"/>
			<g>
				<path class="st0" d="M952.48,592.32l-3.74-0.31c0.91-11.06,1.23-22.04,0.93-32.63c-0.08-2.75-0.19-5.5-0.34-8.25
					c-6.91-128.04-100.79-250.9-239.17-312.99c-88.3-39.62-216.9-60.89-305.17-19.11C349.3,245.41,296.05,287.03,251,339.4
					l-2.84-2.45c45.39-52.76,99.06-94.71,155.23-121.3c41.67-19.73,95.34-27.14,155.22-21.44c51.4,4.89,105.77,19.28,153.09,40.51
					c65.3,29.3,122.38,72.78,165.07,125.75c46.3,57.45,72.69,123.31,76.32,190.45c0.15,2.78,0.26,5.56,0.34,8.35
					C953.72,570.01,953.4,581.13,952.48,592.32z"/>
			</g>
			<path class="st0" d="M441.99,201.76c74.21-30.22,161.02-39.45,239.14-20.3c11.29,2.64,22.31,6.26,33.25,10.04
				c-10.99-3.64-22.05-7.1-33.35-9.59c-56.32-13.17-115.64-10.99-171.8,1.97c-22.36,5.26-44.66,12.04-65.65,21.28
				C443.56,205.17,441.99,201.76,441.99,201.76L441.99,201.76z"/>
			<path class="st0" d="M477.64,195.86c106.64-23.44,220.63-2.12,316.54,48.3c30.96,18.84,59.88,41.49,83.24,69.34
				c13.46,15.81,24.25,33.57,35.04,51.25c-10.85-17.63-21.71-35.34-35.22-51.09c-23.44-27.73-52.39-50.23-83.38-68.93
				c-59.55-31.14-125.41-50.68-192.5-55.43c-30.93-2.27-62.11-1.58-92.84,2.61c-10.22,1.44-20.45,3.19-30.39,5.76
				C478.15,197.66,477.64,195.86,477.64,195.86L477.64,195.86z"/>
			<path class="st0" d="M622.92,184.76c100.3,2.87,198.42,51.34,263.54,127.41c9.39,10.8,17.86,22.38,26,34.13
				c0,0-6.62-8.43-6.62-8.43c-8.5-11.18-18.41-22.04-27.99-32.35C811.26,236.31,718.78,192.06,622.92,184.76L622.92,184.76z"/>
			<path class="st0" d="M784.23,194.21l-10.67-1.11c-16.14-1.27-32.57-2.08-49.1-2.59h-0.04c-0.26-0.02-0.53-0.02-0.81-0.02
				c-4.39-0.15-8.81-0.26-13.22-0.34c-0.06-0.02-0.13-0.02-0.19-0.02c-12.94-0.28-25.91-0.41-38.87-0.47
				c-3.43-0.02-6.84-0.04-10.27-0.04c-13.67-0.04-27.26-0.02-40.7-0.06c-2.49,0-4.99-0.02-7.46-0.02c1.74-0.09,3.51-0.19,5.25-0.26
				c11.47-0.54,22.95-0.88,34.44-1.09c2.96-0.06,5.92-0.09,8.89-0.11h0.02c12.39-0.13,24.79-0.11,37.18,0.04
				c1.89,0.04,3.77,0.09,5.66,0.13c0.17,0,0.34,0.02,0.51,0.02c4.35,0.11,8.72,0.22,13.09,0.36c0.02,0,0.02,0,0.04,0
				c0.3,0,0.58,0.02,0.88,0.02C740.73,189.37,762.61,190.64,784.23,194.21z"/>
			<path class="st0" d="M603.11,202.59c67.89-2.21,136.05,17.73,193.84,53.04c46.95,29.08,86.58,69.79,115.15,116.97
				c6.42,10.43,12.87,22.51,18.35,33.39c0,0-6.33-11-6.33-11c-1.19-2.04-3.58-6.35-4.7-8.27c-0.98-1.5-7.37-11.59-8.52-13.36
				c-29.81-45.84-69.2-85.95-115.93-114.54C737.72,223.4,670.5,203.4,603.11,202.59L603.11,202.59z"/>
			<path class="st0" d="M697.55,230.7c81.43,20.87,155.51,71.13,204.52,139.48c6.72,9.38,13.56,20.4,19.37,30.44
				c1.8,3.43,6.67,12.62,8.42,15.96c1.68,3.59,5.87,12.69,7.57,16.37c7.85,18.3,14.09,37.6,19.13,56.88
				c-4.44-15.21-9.25-30.87-15.48-45.39c-11.88-29.51-28.13-57.69-47.53-82.88C844.51,298.61,774.37,252.15,697.55,230.7
				L697.55,230.7z"/>
			<path class="st0" d="M931.08,667.21c-3.04,12.36-6.62,24.58-11.42,36.35c4.42-11.91,7.67-24.2,10.44-36.58
				c14.92-72.74,17.08-154.69-13.71-223.63c-5.1-11.34-12.04-22.33-18.9-32.72c-13.84-21.2-29.1-41.45-46.06-60.24
				c-15.97-17.64-33.37-34.08-52.06-48.86c-9.24-7.31-18.8-14.19-28.67-20.59c-12.58-8.21-25.67-15.62-39.22-22.14
				c-9.97-4.74-20.15-9.15-30.58-12.94c-0.02-0.02-0.04-0.02-0.06-0.02c-6.11-2.23-12.3-4.24-18.54-5.96l-0.02-0.02
				c-0.47-0.13-0.96-0.26-1.42-0.37h-0.02c-1.13-0.32-2.25-0.62-3.37-0.9c-4.89-1.26-9.84-2.32-14.83-3.19
				c-1.03-0.19-2.04-0.36-3.07-0.52c0.94,0.13,1.89,0.26,2.83,0.41c4.03,0.6,8.04,1.33,12.02,2.17c1.52,0.32,3.04,0.66,4.56,0.99
				c0.02,0.02,0.02,0.02,0.02,0.02c0.39,0.09,0.79,0.17,1.18,0.26h0.02c3,0.73,5.98,1.5,8.94,2.32c4.22,1.16,8.4,2.46,12.54,3.82
				c0,0.02,0.02,0.02,0.04,0.02c13.42,4.5,26.49,10.09,39.18,16.44c0.97,0.51,1.93,1.01,2.89,1.5c7.54,3.82,14.94,7.95,22.18,12.26
				c28.65,17.15,54.88,38.64,78.18,62.53c21.04,21.75,39.92,45.65,56.47,70.94c7.01,10.63,13.82,21.58,19.05,33.26
				C950.52,511.24,947.88,594.45,931.08,667.21z"/>
			<g>
				<path class="st0" d="M839.42,323.94c-98.51-91.97-270.38-125.64-272.11-125.97l0.35-1.84c1.73,0.33,174.13,34.09,273.04,126.44
					L839.42,323.94z"/>
			</g>
			<g>
				<path class="st0" d="M807.87,305.2l-1.09,1.54c-2.46-1.76-4.93-3.51-7.41-5.19c-38.51-26.57-77.88-45.86-113.75-59.83
					c-0.02-0.02-0.04-0.02-0.04-0.02c-0.79-0.3-1.58-0.62-2.36-0.9c-0.04-0.02-0.06-0.04-0.08-0.04c-1.91-0.73-3.81-1.46-5.68-2.16
					c-1.03-0.37-2.04-0.77-3.06-1.12c-10.63-3.9-20.89-7.33-30.67-10.35h-0.02c-3.82-1.18-7.59-2.31-11.27-3.36
					c-0.52-0.15-1.05-0.3-1.57-0.45c-2.89-0.82-5.7-1.59-8.47-2.34c-45.09-12.13-75.63-14.79-76.27-14.85l0.02-0.13v-0.15l0.09-1.14
					l0.04-0.45c0.28,0.02,6.02,0.53,16.03,2.04c0.04,0,0.06,0,0.07,0.02c0.56,0.08,1.12,0.15,1.72,0.24
					c11.38,1.76,27.67,4.76,47.4,9.66c17.23,4.29,37.08,10.03,58.51,17.68c0.02,0,0.04,0,0.06,0.02l2.08,0.73l0.02,0.02
					c5.55,2.01,11.21,4.14,16.95,6.41c3.86,1.52,7.76,3.11,11.72,4.78c0.02,0,0.04,0,0.06,0.02c22.5,9.45,46.1,20.98,69.8,35.08
					C783.12,288.3,795.55,296.37,807.87,305.2z"/>
			</g>
			<g>
				<path class="st0" d="M262.24,325.76c-0.11,0.11-4.46,4.71-10.99,13.37c-9.69,12.86-24.19,34.65-36.67,63.91
					c-0.07,0.17-0.15,0.36-0.22,0.52c-2.17,5.1-4.31,10.56-6.39,16.33c-16.46,45.73-28.46,112.36-8.04,192.6l-0.08,0.02l-3.56,0.9
					c-2.25-8.83-4.11-17.47-5.59-25.97c-0.02-0.04-0.04-0.08-0.04-0.11c-14.06-79.47,2.66-143.87,20.3-185.4
					c12.62-29.68,27.32-51.82,37.22-64.96c0.07-0.09,0.13-0.19,0.21-0.28c6.62-8.76,11.02-13.41,11.14-13.52l0.49,0.47l0.86,0.81
					l0.02,0.04L262.24,325.76z"/>
			</g>
			<g>
				<path class="st0" d="M282.95,741.38l-1.37,1.27c-14.66-15.9-26.94-32.27-37.18-48.8c-0.04-0.02-0.04-0.04-0.06-0.06
					C203.72,628.23,195,560.25,195.9,510.45c0.69-37.52,6.75-69.46,12.06-90.55c4.24-16.89,7.99-26.81,8.06-27.04l1.74,0.66
					c-0.06,0.13-1.31,3.47-3.19,9.52c-5.4,17.49-15.9,57.56-16.8,107.52c-0.99,55.81,10.16,134.69,65.28,207.11
					c0,0,0.02,0.02,0.04,0.04C269.15,725.68,275.77,733.6,282.95,741.38z"/>
			</g>
			<path class="st0" d="M119.41,346.29c-27.49,62-30.9,133.46-15.64,199.1c6.45,27.93,16.8,55.3,29.37,81.03
				c5.2,10.34,11.23,21.29,17.09,31.24c-6.95-11.35-14.18-23.47-20.08-35.44C87.35,537.88,78.53,433.02,119.41,346.29L119.41,346.29
				z"/>
			<path class="st0" d="M100.13,405.99c-14.68,46.9-12.55,98.13,0.33,145.19c7.87,28.38,20.1,55.48,35.1,80.83
				c-2.58-4.19-5.24-8.33-7.71-12.59c-4.85-8.47-9.64-17.33-13.61-26.22C87.72,535.71,79.01,466.51,100.13,405.99L100.13,405.99z"/>
			<path class="st0" d="M415.5,825.82c-4.2-0.64-8.42-1.31-12.64-2.02c-0.02,0-0.04-0.02-0.04-0.02
				c-27.6-4.63-55.2-10.93-81.42-20.47c-5.08-1.84-10.18-3.6-15.22-5.49c-5.1-2.16-17.45-7.44-22.33-9.52
				c-4.52-2.23-17.02-8.57-21.69-10.95c-8.08-4.82-20.1-11.46-27.65-16.89c-3.82-2.68-9.73-6.32-13.31-9.22
				C138.1,690.87,84.88,591.99,77.56,489.83c10.67,101.11,63.46,198.13,145.69,258.58c3.52,2.89,9.37,6.56,13.14,9.21
				c7.42,5.4,19.37,12.11,27.32,16.89c4.61,2.36,16.93,8.74,21.41,11.06l7.33,3.28c29,13.5,60.37,23.17,91.44,30.6
				c4.99,1.12,10.89,2.29,16.76,3.43C405.87,823.89,411.04,824.88,415.5,825.82z"/>
			<path class="st0" d="M421.07,827.84c-3.28-0.21-6.56-0.45-9.84-0.73c0,0,0,0-0.02-0.02c-49.83-4.27-99.22-16.97-144.36-38.58
				C191.1,749.16,126.38,685.54,91.72,607.03c-12.75-29.28-22.25-60.48-24.28-92.45c4.11,34.25,15.82,67.27,31.01,98.09
				c34.27,68.86,91.15,124.55,156.68,163.94c47.32,26.59,100.23,42.11,153.91,49.66c0,0.02,0.02,0.02,0.04,0.02
				C413.07,826.85,417.06,827.37,421.07,827.84z"/>
			<path class="st0" d="M72.84,584.77c19.7,69.3,67.69,128.55,126.15,169.55c48.07,33.26,103.61,54.66,160.7,66.44
				c8.7,2.13,30.82,5.64,39.83,7.08c-9.21-1.3-31.26-4.45-39.97-6.4c-57.45-10.9-113.33-32.33-161.63-65.57
				C139.33,714.61,91.25,654.77,72.84,584.77L72.84,584.77z"/>
			<path class="st0" d="M77.56,652.94c32.56,54.58,83.03,97.38,139.04,126.55c45.71,23.81,96.25,38.15,147.28,44.71
				c10.99,1.59,24.56,2.65,35.62,3.64c-15.64-0.55-32.13-1.51-47.68-3.5c-45.5-5.67-90.45-18.44-131.59-38.83
				C161.78,756,108.78,711.16,77.56,652.94L77.56,652.94z"/>
			<path class="st0" d="M433.43,831.97c-2.66,0.07-5.42,0.13-8.21,0.19c0,0-0.02,0-0.04,0c-7.39,0.13-15.05,0.21-22.12,0.32
				c-6.58,0.36-23.51-0.73-30.37-1.01c-19.93-0.94-40.78-3.36-60.43-6.84c-66.11-11.46-132.68-34.16-185.87-76.06
				c21.65,15.86,45.95,28.35,70.61,38.83C258.92,813.74,325.98,826.7,393,830.6c10.01,0.64,20.42,0.73,30.63,1.01
				c0.02,0,0.04,0,0.04,0C426.96,831.71,430.22,831.82,433.43,831.97z"/>
			<path class="st0" d="M399.51,819.52c-3.99-0.75-8.08-1.59-12.21-2.49c0,0-0.02-0.02-0.04-0.02c-8.21-1.8-16.54-3.84-24.39-5.94
				c-57.01-16.14-110.62-44.94-154.41-84.97c-31.37-28.7-59.04-62.53-77.24-101.09c-0.17-0.36-0.34-0.71-0.51-1.07
				c0.41,0.77,0.82,1.54,1.27,2.31c1.11,2.04,2.25,4.07,3.41,6.07c2.21,3.84,4.5,7.65,6.88,11.4
				c30.17,47.79,72.22,87.85,119.5,118.55c31.53,20.15,65.92,35.81,101.54,47.25c3.49,1.07,11.89,3.54,15.41,4.59
				c1.76,0.52,3.71,1.05,5.74,1.57l0.02,0.02C389.54,816.99,395.1,818.3,399.51,819.52z"/>
			<g>
				<path class="st0" d="M764.71,276.79c-91.18-54.74-210.25-78.59-211.45-78.82l0.36-1.84c1.2,0.24,120.59,24.14,212.05,79.05
					L764.71,276.79z"/>
			</g>
			<g>
				<path class="st0" d="M767.22,267.65c-115.3-67.5-225.26-61.58-226.36-61.52l-0.11-1.87c1.1-0.07,111.64-6.01,227.42,61.77
					L767.22,267.65z"/>
			</g>
		</g>
	</g>
	<g>
		<g>
			<path class="st0" d="M857.06,624.03c-18.15,78.95-72.44,146.18-140.26,188.98c-34.22,21.26-72.22,36.17-111.57,44.64
				c-27.73,5.77-55.93,9.09-84.27,8.04c-1.97-0.07-9.37-0.73-9.37-0.73v-14.12c-29.36-2.85-58.4-9.19-86.37-18.69
				c2.79-0.06,5.55-0.11,8.21-0.19c-3.21-0.15-6.47-0.26-9.75-0.36c0,0-0.02,0-0.04,0c-4.16-1.42-8.31-2.92-12.41-4.5
				c3.28,0.28,6.56,0.52,9.84,0.73c-4.01-0.47-8.01-0.99-12-1.56c-0.02,0-0.04,0-0.04-0.02c-2.06-0.81-4.11-1.63-6.17-2.47
				c4.22,0.71,8.44,1.39,12.64,2.02c-4.46-0.94-9.64-1.93-14.85-2.94c-4.5-1.86-8.94-3.82-13.35-5.85c4.12,0.9,8.21,1.74,12.21,2.49
				c-4.41-1.22-9.97-2.53-15.02-3.82l-0.02-0.02c-9.82-4.61-19.46-9.66-28.87-15.11c0.6,0.3,1.2,0.58,1.8,0.86
				c9.43,4.52,20.21,8.98,29.88,12.73l-9.82-4.52c-1.86-0.86-5.47-2.47-7.39-3.36c-1.18-0.58-10.82-5.53-12.04-6.11
				c-10.2-5.29-20.17-10.99-29.92-17.12c-0.02-0.02-0.06-0.02-0.07-0.06c-13.78-9.6-26.89-20.15-39.22-31.57
				c-61.89-57.35-100.68-136.77-115.96-219.17c-18.43-111.98,36.88-226.76,124.38-295.64c110.58-91.32,266.53-93.24,398.76-55.03
				c7.67,2.19,15.3,4.56,22.85,7.07c-0.3,0-0.58-0.02-0.88-0.02c-0.02,0-0.02,0-0.04,0c-7.31-2.38-14.62-4.63-22.03-6.71
				c-131.99-37.52-287.54-35.15-397.33,56.34c-86.47,68.68-140.93,182.51-122.22,293.41c3.62,19.2,8.4,37.78,14.3,55.66
				c0,0.04,0.02,0.07,0.04,0.11c1.48,8.49,3.34,17.14,5.59,25.97l3.56-0.9c11.77,29.3,26.7,56.53,44.51,81.27
				c0.02,0.02,0.02,0.04,0.06,0.06c10.24,16.54,22.52,32.9,37.18,48.8l1.37-1.27c-7.18-7.78-13.8-15.69-19.85-23.66
				c52.5,61.49,124.81,104.63,212.17,122.31c12,2.38,24.22,4.33,36.32,5.29v-82.29L627,665.16l116.84,104.58
				c24.5-20.4,45.03-45.48,61.98-72.42c42.9-67.91,55.33-152.61,36.95-230.55c-17.29-84.5-68.92-158.67-139.17-206.12l7.61,5.12
				c6.04,3.82,14.49,10.54,20.3,14.79c11.45,9.11,22.35,18.95,32.53,29.49c0.08,0.08,0.13,0.13,0.19,0.21
				c32.49,34.98,57.56,76.85,71.99,122.65c6.26,18.9,10.89,38.17,13.78,57.59c1.09,9.56,1.71,19.18,1.8,28.8
				c0.06-6.45-0.11-12.92-0.51-19.35c8.34,68.82-4.87,138.87-42.6,199.16c-15.19,24.49-33.43,47.15-54.65,66.69
				c-2.4,2.23-4.84,4.39-7.35,6.51c-1.91,1.61-3.88,3.21-5.92,4.76l-1.42,1.24l-112.51-100.7l-105.89,89.77v92.69
				c57.54,2.02,115.85-11.02,167.48-36.39c79.61-39.75,144.89-112.83,165.72-200.34c13.65-55.85,10.44-114.44-0.17-170.61
				c-2.46-12.09-5.7-24.35-10.09-35.9c-28.37-74.96-88.85-134.74-157.5-174.27c-1.05-0.6-2.1-1.18-3.17-1.76
				c0.79,0.28,1.57,0.6,2.36,0.9c0,0,0.02,0,0.04,0.02c0.32,0.17,0.64,0.36,0.96,0.53c69.07,39.24,130.06,98.9,158.97,173.98
				c4.5,11.61,7.86,23.94,10.39,36.13C866.92,508.73,870.49,567.69,857.06,624.03z"/>
		</g>
	</g>
	<g>
		<g>
			<rect x="600.65" y="776" class="st0" width="18.66" height="16.42"/>
			<rect x="600.65" y="753.73" class="st0" width="18.66" height="16.42"/>
			<rect x="624.05" y="776" class="st0" width="18.66" height="16.42"/>
			<rect x="624.05" y="753.73" class="st0" width="18.66" height="16.42"/>
		</g>
	</g>
</g>
</svg>
